<svg xmlns="http://www.w3.org/2000/svg" viewBox="0 0 64 64" fill="none">
  <!-- Background -->
  <rect width="64" height="64" fill="#ffffff" />

  <!-- Panels -->
  <g stroke="#000000" stroke-width="1" stroke-linecap="round">
    <rect x="2" y="2" width="60" height="60" fill="#ffffff" />

    <line x1="16" y1="2" x2="16" y2="62" />
    <line x1="32" y1="2" x2="32" y2="62" />
    <line x1="48" y1="2" x2="48" y2="62" />
    
    <line x1="2" y1="6" x2="62" y2="6" />
    <line x1="2" y1="10" x2="62" y2="10" />
    <line x1="2" y1="14" x2="62" y2="14" />
    <line x1="2" y1="18" x2="62" y2="18" />
    <line x1="2" y1="22" x2="62" y2="22" />
    <line x1="2" y1="26" x2="62" y2="26" />
    <line x1="2" y1="30" x2="62" y2="30" />
    <line x1="2" y1="34" x2="62" y2="34" />
    <line x1="2" y1="38" x2="62" y2="38" />
    <line x1="2" y1="42" x2="62" y2="42" />
    <line x1="2" y1="46" x2="62" y2="46" />
    <line x1="2" y1="50" x2="62" y2="50" />
    <line x1="2" y1="54" x2="62" y2="54" />
    <line x1="2" y1="58" x2="62" y2="58" />
  </g>
</svg>