<svg xmlns="http://www.w3.org/2000/svg" viewBox="0 0 64 64" fill="none">
  <!-- Background -->
  <rect width="64" height="64" fill="#ffffff" />

  <!-- Panels -->
  <g stroke="#000000" stroke-width="1" stroke-linecap="round">
    <rect x="15" y="4" width="32" height="16" fill="#ffffff" />
    <rect x="18" y="7" width="4"  height="4"  fill="#ffffff" />
    <line x1="26" y1="7" x2="36" y2="7" stroke-width="2" />
    <line x1="26" y1="10" x2="44" y2="10" />
    <line x1="26" y1="13" x2="44" y2="13" />
    <line x1="26" y1="16" x2="44" y2="16" />

    <rect x="15" y="24" width="32" height="16" fill="#ffffff" />
    <rect x="18" y="27" width="4"  height="4"  fill="#ffffff" />
    <line x1="26" y1="27" x2="36" y2="27" stroke-width="2" />
    <line x1="26" y1="30" x2="44" y2="30" />
    <line x1="26" y1="33" x2="44" y2="33" />
    <line x1="26" y1="36" x2="44" y2="36" />

    <rect x="15" y="44" width="32" height="16" fill="#ffffff" />
    <rect x="18" y="47" width="4"  height="4"  fill="#ffffff" />
    <line x1="26" y1="47" x2="36" y2="47" stroke-width="2" />
    <line x1="26" y1="50" x2="44" y2="50" />
    <line x1="26" y1="53" x2="44" y2="53" />
    <line x1="26" y1="56" x2="44" y2="56" />
  </g>
</svg>